<svg xmlns="http://www.w3.org/2000/svg" xmlns:xlink="http://www.w3.org/1999/xlink" style="width:1069px;height:523px;background:#fff" width="1069" height="523" contentStyleType="text/css" preserveAspectRatio="none" version="1.1" viewBox="0 0 1069 523" zoomAndPan="magnify"><g><rect style="stroke:#181818;stroke-width:.5" width="471.36" height="511.438" x="21" y="6" fill="#ADD8E6"/><text x="188.427" y="19.495" fill="#000" font-family="sans-serif" font-size="13" font-weight="bold" lengthAdjust="spacing" textLength="136.506">Host with ESP-Hosted</text><rect style="stroke:#181818;stroke-width:.5" width="511.765" height="511.438" x="534.36" y="6" fill="#D3D3D3"/><text x="734.25" y="19.495" fill="#000" font-family="sans-serif" font-size="13" font-weight="bold" lengthAdjust="spacing" textLength="111.985">Slave ESP-Hosted</text><line style="stroke:#181818;stroke-width:.5;stroke-dasharray:5,5" x1="66" x2="66" y1="58.961" y2="481.828"/><line style="stroke:#181818;stroke-width:.5;stroke-dasharray:5,5" x1="171.82" x2="171.82" y1="58.961" y2="481.828"/><line style="stroke:#181818;stroke-width:.5;stroke-dasharray:5,5" x1="326.513" x2="326.513" y1="58.961" y2="481.828"/><line style="stroke:#181818;stroke-width:.5;stroke-dasharray:5,5" x1="434.774" x2="434.774" y1="58.961" y2="481.828"/><line style="stroke:#181818;stroke-width:.5;stroke-dasharray:5,5" x1="594.36" x2="594.36" y1="58.961" y2="481.828"/><line style="stroke:#181818;stroke-width:.5;stroke-dasharray:5,5" x1="709.181" x2="709.181" y1="58.961" y2="481.828"/><line style="stroke:#181818;stroke-width:.5;stroke-dasharray:5,5" x1="844.449" x2="844.449" y1="58.961" y2="481.828"/><line style="stroke:#181818;stroke-width:.5;stroke-dasharray:5,5" x1="985.898" x2="985.898" y1="58.961" y2="481.828"/><rect style="stroke:#181818;stroke-width:.5" width="82.489" height="31.609" x="25" y="26.352" fill="#E2E2F0" rx="2.5" ry="2.5"/><text x="32" y="47.885" fill="#000" font-family="sans-serif" font-size="14" lengthAdjust="spacing" textLength="68.489">Application</text><rect style="stroke:#181818;stroke-width:.5" width="82.489" height="31.609" x="25" y="480.828" fill="#E2E2F0" rx="2.5" ry="2.5"/><text x="32" y="502.361" fill="#000" font-family="sans-serif" font-size="14" lengthAdjust="spacing" textLength="68.489">Application</text><rect style="stroke:#181818;stroke-width:.5" width="99.559" height="31.609" x="122.82" y="26.352" fill="#E2E2F0" rx="2.5" ry="2.5"/><text x="129.82" y="47.885" fill="#000" font-family="sans-serif" font-size="14" lengthAdjust="spacing" textLength="85.559">Wi-Fi Remote</text><rect style="stroke:#181818;stroke-width:.5" width="99.559" height="31.609" x="122.82" y="480.828" fill="#E2E2F0" rx="2.5" ry="2.5"/><text x="129.82" y="502.361" fill="#000" font-family="sans-serif" font-size="14" lengthAdjust="spacing" textLength="85.559">Wi-Fi Remote</text><rect style="stroke:#181818;stroke-width:.5" width="90.262" height="31.609" x="281.513" y="26.352" fill="#E2E2F0" rx="2.5" ry="2.5"/><text x="288.513" y="47.885" fill="#000" font-family="sans-serif" font-size="14" lengthAdjust="spacing" textLength="76.262">ESP Hosted</text><rect style="stroke:#181818;stroke-width:.5" width="90.262" height="31.609" x="281.513" y="480.828" fill="#E2E2F0" rx="2.5" ry="2.5"/><text x="288.513" y="502.361" fill="#000" font-family="sans-serif" font-size="14" lengthAdjust="spacing" textLength="76.262">ESP Hosted</text><rect style="stroke:#181818;stroke-width:.5" width="106.586" height="31.609" x="381.774" y="26.352" fill="#E2E2F0" rx="2.5" ry="2.5"/><text x="388.774" y="47.885" fill="#000" font-family="sans-serif" font-size="14" lengthAdjust="spacing" textLength="92.586">Host Transport</text><rect style="stroke:#181818;stroke-width:.5" width="106.586" height="31.609" x="381.774" y="480.828" fill="#E2E2F0" rx="2.5" ry="2.5"/><text x="388.774" y="502.361" fill="#000" font-family="sans-serif" font-size="14" lengthAdjust="spacing" textLength="92.586">Host Transport</text><rect style="stroke:#181818;stroke-width:.5" width="112.82" height="31.609" x="538.36" y="26.352" fill="#E2E2F0" rx="2.5" ry="2.5"/><text x="545.36" y="47.885" fill="#000" font-family="sans-serif" font-size="14" lengthAdjust="spacing" textLength="98.82">Slave Transport</text><rect style="stroke:#181818;stroke-width:.5" width="112.82" height="31.609" x="538.36" y="480.828" fill="#E2E2F0" rx="2.5" ry="2.5"/><text x="545.36" y="502.361" fill="#000" font-family="sans-serif" font-size="14" lengthAdjust="spacing" textLength="98.82">Slave Transport</text><rect style="stroke:#181818;stroke-width:.5" width="97.269" height="31.609" x="661.181" y="26.352" fill="#E2E2F0" rx="2.5" ry="2.5"/><text x="668.181" y="47.885" fill="#000" font-family="sans-serif" font-size="14" lengthAdjust="spacing" textLength="83.269">Slave Hosted</text><rect style="stroke:#181818;stroke-width:.5" width="97.269" height="31.609" x="661.181" y="480.828" fill="#E2E2F0" rx="2.5" ry="2.5"/><text x="668.181" y="502.361" fill="#000" font-family="sans-serif" font-size="14" lengthAdjust="spacing" textLength="83.269">Slave Hosted</text><rect style="stroke:#181818;stroke-width:.5" width="152.448" height="31.609" x="768.449" y="26.352" fill="#E2E2F0" rx="2.5" ry="2.5"/><text x="775.449" y="47.885" fill="#000" font-family="sans-serif" font-size="14" lengthAdjust="spacing" textLength="138.448">ESP-IDF Wi-Fi Library</text><rect style="stroke:#181818;stroke-width:.5" width="152.448" height="31.609" x="768.449" y="480.828" fill="#E2E2F0" rx="2.5" ry="2.5"/><text x="775.449" y="502.361" fill="#000" font-family="sans-serif" font-size="14" lengthAdjust="spacing" textLength="138.448">ESP-IDF Wi-Fi Library</text><rect style="stroke:#181818;stroke-width:.5" width="111.228" height="31.609" x="930.898" y="26.352" fill="#E2E2F0" rx="2.5" ry="2.5"/><text x="937.898" y="47.885" fill="#000" font-family="sans-serif" font-size="14" lengthAdjust="spacing" textLength="97.228">Wi-Fi Hardware</text><rect style="stroke:#181818;stroke-width:.5" width="111.228" height="31.609" x="930.898" y="480.828" fill="#E2E2F0" rx="2.5" ry="2.5"/><text x="937.898" y="502.361" fill="#000" font-family="sans-serif" font-size="14" lengthAdjust="spacing" textLength="97.228">Wi-Fi Hardware</text><polygon fill="#181818" points="160.599 87.313 170.599 91.313 160.599 95.313 164.599 91.313" style="stroke:#181818;stroke-width:1"/><line style="stroke:#181818;stroke-width:1" x1="66.245" x2="166.599" y1="91.313" y2="91.313"/><text x="73.245" y="86.456" fill="#000" font-family="sans-serif" font-size="13" lengthAdjust="spacing" textLength="82.355">esp_wifi_xxx()</text><polygon fill="#181818" points="314.644 117.664 324.644 121.664 314.644 125.664 318.644 121.664" style="stroke:#181818;stroke-width:1"/><line style="stroke:#181818;stroke-width:1" x1="172.599" x2="320.644" y1="121.664" y2="121.664"/><text x="179.599" y="116.808" fill="#000" font-family="sans-serif" font-size="13" lengthAdjust="spacing" textLength="130.044">esp_wifi_remote_xxx()</text><polygon fill="#181818" points="423.067 131.664 433.067 135.664 423.067 139.664 427.067 135.664" style="stroke:#181818;stroke-width:1"/><line style="stroke:#181818;stroke-width:1" x1="326.644" x2="429.067" y1="135.664" y2="135.664"/><polygon fill="#181818" points="582.77 162.016 592.77 166.016 582.77 170.016 586.77 166.016" style="stroke:#181818;stroke-width:1"/><line style="stroke:#181818;stroke-width:5" x1="435.067" x2="588.77" y1="166.016" y2="166.016"/><text x="442.067" y="161.159" fill="#000" font-family="sans-serif" font-size="13" lengthAdjust="spacing" textLength="56.348">SPI/SDIO</text><polygon fill="#181818" points="697.815 176.016 707.815 180.016 697.815 184.016 701.815 180.016" style="stroke:#181818;stroke-width:1"/><line style="stroke:#181818;stroke-width:1" x1="594.77" x2="703.815" y1="180.016" y2="180.016"/><polygon fill="#181818" points="832.673 206.367 842.673 210.367 832.673 214.367 836.673 210.367" style="stroke:#181818;stroke-width:1"/><line style="stroke:#181818;stroke-width:1" x1="709.815" x2="838.673" y1="210.367" y2="210.367"/><text x="716.815" y="205.511" fill="#000" font-family="sans-serif" font-size="13" lengthAdjust="spacing" textLength="82.355">esp_wifi_xxx()</text><polygon fill="#181818" points="974.511 220.367 984.511 224.367 974.511 228.367 978.511 224.367" style="stroke:#181818;stroke-width:1"/><line style="stroke:#181818;stroke-width:1" x1="844.673" x2="980.511" y1="224.367" y2="224.367"/><line style="stroke:#181818;stroke-width:1" x1="986.511" x2="1028.511" y1="254.719" y2="254.719"/><line style="stroke:#181818;stroke-width:1" x1="1028.511" x2="1028.511" y1="254.719" y2="267.719"/><line style="stroke:#181818;stroke-width:1" x1="987.511" x2="1028.511" y1="267.719" y2="267.719"/><polygon fill="#181818" points="997.511 263.719 987.511 267.719 997.511 271.719 993.511 267.719" style="stroke:#181818;stroke-width:1"/><text x="993.511" y="249.862" fill="#000" font-family="sans-serif" font-size="13" lengthAdjust="spacing" textLength="68.618">Wi-Fi action</text><polygon fill="#181818" points="855.673 294.07 845.673 298.07 855.673 302.07 851.673 298.07" style="stroke:#181818;stroke-width:1"/><line style="stroke:#181818;stroke-width:1;stroke-dasharray:2,2" x1="849.673" x2="985.511" y1="298.07" y2="298.07"/><text x="861.673" y="293.214" fill="#000" font-family="sans-serif" font-size="13" lengthAdjust="spacing" textLength="53.479">response</text><polygon fill="#181818" points="720.815 340.773 710.815 344.773 720.815 348.773 716.815 344.773" style="stroke:#181818;stroke-width:1"/><line style="stroke:#181818;stroke-width:1;stroke-dasharray:2,2" x1="714.815" x2="843.673" y1="344.773" y2="344.773"/><text x="726.815" y="323.565" fill="#000" font-family="sans-serif" font-size="13" lengthAdjust="spacing" textLength="79.853">return value +</text><text x="726.815" y="339.917" fill="#000" font-family="sans-serif" font-size="13" lengthAdjust="spacing" textLength="68.644">data (if any)</text><polygon fill="#181818" points="605.77 354.773 595.77 358.773 605.77 362.773 601.77 358.773" style="stroke:#181818;stroke-width:1"/><line style="stroke:#181818;stroke-width:1;stroke-dasharray:2,2" x1="599.77" x2="708.815" y1="358.773" y2="358.773"/><polygon fill="#181818" points="446.067 385.125 436.067 389.125 446.067 393.125 442.067 389.125" style="stroke:#181818;stroke-width:1"/><line style="stroke:#181818;stroke-width:5;stroke-dasharray:2,2" x1="440.067" x2="593.77" y1="389.125" y2="389.125"/><text x="452.067" y="384.269" fill="#000" font-family="sans-serif" font-size="13" lengthAdjust="spacing" textLength="56.348">SPI/SDIO</text><polygon fill="#181818" points="337.644 399.125 327.644 403.125 337.644 407.125 333.644 403.125" style="stroke:#181818;stroke-width:1"/><line style="stroke:#181818;stroke-width:1;stroke-dasharray:2,2" x1="331.644" x2="434.067" y1="403.125" y2="403.125"/><polygon fill="#181818" points="183.599 413.125 173.599 417.125 183.599 421.125 179.599 417.125" style="stroke:#181818;stroke-width:1"/><line style="stroke:#181818;stroke-width:1;stroke-dasharray:2,2" x1="177.599" x2="325.644" y1="417.125" y2="417.125"/><polygon fill="#181818" points="77.245 459.828 67.245 463.828 77.245 467.828 73.245 463.828" style="stroke:#181818;stroke-width:1"/><line style="stroke:#181818;stroke-width:1;stroke-dasharray:2,2" x1="71.245" x2="171.599" y1="463.828" y2="463.828"/><text x="83.245" y="442.62" fill="#000" font-family="sans-serif" font-size="13" lengthAdjust="spacing" textLength="79.853">return value +</text><text x="83.245" y="458.972" fill="#000" font-family="sans-serif" font-size="13" lengthAdjust="spacing" textLength="68.644">data (if any)</text></g></svg>