<svg xmlns="http://www.w3.org/2000/svg" xmlns:xlink="http://www.w3.org/1999/xlink" style="width:398px;height:258px;background:#fff" width="398" height="258" contentStyleType="text/css" preserveAspectRatio="none" version="1.1" viewBox="0 0 398 258" zoomAndPan="magnify"><g><line style="stroke:#181818;stroke-width:.5;stroke-dasharray:5,5" x1="46" x2="46" y1="37.609" y2="222.367"/><line style="stroke:#181818;stroke-width:.5;stroke-dasharray:5,5" x1="173.489" x2="173.489" y1="37.609" y2="222.367"/><line style="stroke:#181818;stroke-width:.5;stroke-dasharray:5,5" x1="314.938" x2="314.938" y1="37.609" y2="222.367"/><rect style="stroke:#181818;stroke-width:.5" width="82.489" height="31.609" x="5" y="5" fill="#E2E2F0" rx="2.5" ry="2.5"/><text x="12" y="26.533" fill="#000" font-family="sans-serif" font-size="14" lengthAdjust="spacing" textLength="68.489">Application</text><rect style="stroke:#181818;stroke-width:.5" width="82.489" height="31.609" x="5" y="221.367" fill="#E2E2F0" rx="2.5" ry="2.5"/><text x="12" y="242.9" fill="#000" font-family="sans-serif" font-size="14" lengthAdjust="spacing" textLength="68.489">Application</text><rect style="stroke:#181818;stroke-width:.5" width="152.448" height="31.609" x="97.489" y="5" fill="#E2E2F0" rx="2.5" ry="2.5"/><text x="104.489" y="26.533" fill="#000" font-family="sans-serif" font-size="14" lengthAdjust="spacing" textLength="138.448">ESP-IDF Wi-Fi Library</text><rect style="stroke:#181818;stroke-width:.5" width="152.448" height="31.609" x="97.489" y="221.367" fill="#E2E2F0" rx="2.5" ry="2.5"/><text x="104.489" y="242.9" fill="#000" font-family="sans-serif" font-size="14" lengthAdjust="spacing" textLength="138.448">ESP-IDF Wi-Fi Library</text><rect style="stroke:#181818;stroke-width:.5" width="111.228" height="31.609" x="259.938" y="5" fill="#E2E2F0" rx="2.5" ry="2.5"/><text x="266.938" y="26.533" fill="#000" font-family="sans-serif" font-size="14" lengthAdjust="spacing" textLength="97.228">Wi-Fi Hardware</text><rect style="stroke:#181818;stroke-width:.5" width="111.228" height="31.609" x="259.938" y="221.367" fill="#E2E2F0" rx="2.5" ry="2.5"/><text x="266.938" y="242.9" fill="#000" font-family="sans-serif" font-size="14" lengthAdjust="spacing" textLength="97.228">Wi-Fi Hardware</text><polygon fill="#181818" points="161.713 65.961 171.713 69.961 161.713 73.961 165.713 69.961" style="stroke:#181818;stroke-width:1"/><line style="stroke:#181818;stroke-width:1" x1="46.245" x2="167.713" y1="69.961" y2="69.961"/><text x="53.245" y="65.105" fill="#000" font-family="sans-serif" font-size="13" lengthAdjust="spacing" textLength="82.355">esp_wifi_xxx()</text><polygon fill="#181818" points="303.551 79.961 313.551 83.961 303.551 87.961 307.551 83.961" style="stroke:#181818;stroke-width:1"/><line style="stroke:#181818;stroke-width:1" x1="173.713" x2="309.551" y1="83.961" y2="83.961"/><line style="stroke:#181818;stroke-width:1" x1="315.551" x2="357.551" y1="114.313" y2="114.313"/><line style="stroke:#181818;stroke-width:1" x1="357.551" x2="357.551" y1="114.313" y2="127.313"/><line style="stroke:#181818;stroke-width:1" x1="316.551" x2="357.551" y1="127.313" y2="127.313"/><polygon fill="#181818" points="326.551 123.313 316.551 127.313 326.551 131.313 322.551 127.313" style="stroke:#181818;stroke-width:1"/><text x="322.551" y="109.456" fill="#000" font-family="sans-serif" font-size="13" lengthAdjust="spacing" textLength="68.618">Wi-Fi action</text><polygon fill="#181818" points="184.713 153.664 174.713 157.664 184.713 161.664 180.713 157.664" style="stroke:#181818;stroke-width:1"/><line style="stroke:#181818;stroke-width:1;stroke-dasharray:2,2" x1="178.713" x2="314.551" y1="157.664" y2="157.664"/><text x="190.713" y="152.808" fill="#000" font-family="sans-serif" font-size="13" lengthAdjust="spacing" textLength="53.479">response</text><polygon fill="#181818" points="57.245 200.367 47.245 204.367 57.245 208.367 53.245 204.367" style="stroke:#181818;stroke-width:1"/><line style="stroke:#181818;stroke-width:1;stroke-dasharray:2,2" x1="51.245" x2="172.713" y1="204.367" y2="204.367"/><text x="63.245" y="183.159" fill="#000" font-family="sans-serif" font-size="13" lengthAdjust="spacing" textLength="79.853">return value +</text><text x="63.245" y="199.511" fill="#000" font-family="sans-serif" font-size="13" lengthAdjust="spacing" textLength="68.644">data (if any)</text></g></svg>