<svg xmlns="http://www.w3.org/2000/svg" xmlns:xlink="http://www.w3.org/1999/xlink" style="width:330px;height:657px;background:#fff" width="330" height="657" contentStyleType="text/css" preserveAspectRatio="none" version="1.1" viewBox="0 0 330 657" zoomAndPan="magnify"><g><text x="41" y="29.966" fill="#000" font-family="sans-serif" font-size="14" font-weight="bold" lengthAdjust="spacing" textLength="245">SPI HD Host and Slave Initialization</text><line style="stroke:#181818;stroke-width:.5;stroke-dasharray:5,5" x1="84" x2="84" y1="79.136" y2="190.254"/><line style="stroke:#a80036;stroke-width:1;stroke-dasharray:1,4" x1="84" x2="84" y1="190.254" y2="233.236"/><line style="stroke:#181818;stroke-width:.5;stroke-dasharray:5,5" x1="84" x2="84" y1="233.236" y2="619.708"/><line style="stroke:#181818;stroke-width:.5;stroke-dasharray:5,5" x1="253.5" x2="253.5" y1="79.136" y2="190.254"/><line style="stroke:#a80036;stroke-width:1;stroke-dasharray:1,4" x1="253.5" x2="253.5" y1="190.254" y2="233.236"/><line style="stroke:#181818;stroke-width:.5;stroke-dasharray:5,5" x1="253.5" x2="253.5" y1="233.236" y2="619.708"/><rect style="stroke:#181818;stroke-width:.5" width="49" height="33.068" x="60" y="45.068" fill="#E2E2F0" rx="2.5" ry="2.5"/><text x="67" y="67.034" fill="#000" font-family="sans-serif" font-size="14" lengthAdjust="spacing" textLength="35">Slave</text><rect style="stroke:#181818;stroke-width:.5" width="49" height="33.068" x="60" y="618.708" fill="#E2E2F0" rx="2.5" ry="2.5"/><text x="67" y="640.674" fill="#000" font-family="sans-serif" font-size="14" lengthAdjust="spacing" textLength="35">Slave</text><rect style="stroke:#181818;stroke-width:.5" width="44" height="33.068" x="231.5" y="45.068" fill="#E2E2F0" rx="2.5" ry="2.5"/><text x="238.5" y="67.034" fill="#000" font-family="sans-serif" font-size="14" lengthAdjust="spacing" textLength="30">Host</text><rect style="stroke:#181818;stroke-width:.5" width="44" height="33.068" x="231.5" y="618.708" fill="#E2E2F0" rx="2.5" ry="2.5"/><text x="238.5" y="640.674" fill="#000" font-family="sans-serif" font-size="14" lengthAdjust="spacing" textLength="30">Host</text><path fill="#FEFFDD" d="M63,94.1358 L63,121.1358 L273,121.1358 L273,104.1358 L263,94.1358 L63,94.1358" style="stroke:#181818;stroke-width:.5"/><path fill="#FEFFDD" d="M263,94.1358 L263,104.1358 L273,104.1358 L263,94.1358" style="stroke:#181818;stroke-width:.5"/><text x="153.75" y="113.033" fill="#000" font-family="sans-serif" font-size="13" lengthAdjust="spacing" textLength="20">Init</text><polygon fill="#181818" points="95.5 146.548 85.5 150.548 95.5 154.548 91.5 150.548" style="stroke:#181818;stroke-width:1"/><line style="stroke:#181818;stroke-width:1" x1="89.5" x2="252.5" y1="150.548" y2="150.548"/><text x="101.5" y="144.739" fill="#000" font-family="sans-serif" font-size="13" lengthAdjust="spacing" textLength="138">Read SLAVE_READY reg</text><polygon fill="#181818" points="241.5 178.254 251.5 182.254 241.5 186.254 245.5 182.254" style="stroke:#181818;stroke-width:1"/><line style="stroke:#181818;stroke-width:1" x1="84.5" x2="247.5" y1="182.254" y2="182.254"/><text x="91.5" y="176.445" fill="#000" font-family="sans-serif" font-size="13" lengthAdjust="spacing" textLength="106">Not Ready (!0xEE)</text><text x="154" y="216.013" fill="#000" font-family="sans-serif" font-size="11" lengthAdjust="spacing" textLength="30">(loop)</text><path fill="#FEFFDD" d="M12,238.2358 L12,283.2358 L156,283.2358 L156,248.2358 L146,238.2358 L12,238.2358" style="stroke:#181818;stroke-width:.5"/><path fill="#FEFFDD" d="M146,238.2358 L146,248.2358 L156,248.2358 L146,238.2358" style="stroke:#181818;stroke-width:.5"/><text x="18" y="257.133" fill="#000" font-family="sans-serif" font-size="13" lengthAdjust="spacing" textLength="93">Now Ready: Set</text><text x="18" y="274.839" fill="#000" font-family="sans-serif" font-size="13" lengthAdjust="spacing" textLength="123">SLAVE_READY = 0xEE</text><polygon fill="#181818" points="95.5 308.354 85.5 312.354 95.5 316.354 91.5 312.354" style="stroke:#181818;stroke-width:1"/><line style="stroke:#181818;stroke-width:1" x1="89.5" x2="252.5" y1="312.354" y2="312.354"/><text x="101.5" y="306.545" fill="#000" font-family="sans-serif" font-size="13" lengthAdjust="spacing" textLength="138">Read SLAVE_READY reg</text><polygon fill="#181818" points="241.5 340.06 251.5 344.06 241.5 348.06 245.5 344.06" style="stroke:#181818;stroke-width:1"/><line style="stroke:#181818;stroke-width:1" x1="84.5" x2="247.5" y1="344.06" y2="344.06"/><text x="91.5" y="338.251" fill="#000" font-family="sans-serif" font-size="13" lengthAdjust="spacing" textLength="76">Ready (0xEE)</text><polygon fill="#181818" points="95.5 371.766 85.5 375.766 95.5 379.766 91.5 375.766" style="stroke:#181818;stroke-width:1"/><line style="stroke:#181818;stroke-width:1" x1="89.5" x2="252.5" y1="375.766" y2="375.766"/><text x="101.5" y="369.957" fill="#000" font-family="sans-serif" font-size="13" lengthAdjust="spacing" textLength="145">Set SLAVE_CONTROL = 1</text><path fill="#FEFFDD" d="M26,388.7659 L26,415.7659 L142,415.7659 L142,398.7659 L132,388.7659 L26,388.7659" style="stroke:#181818;stroke-width:.5"/><path fill="#FEFFDD" d="M132,388.7659 L132,398.7659 L142,398.7659 L132,388.7659" style="stroke:#181818;stroke-width:.5"/><text x="32" y="407.663" fill="#000" font-family="sans-serif" font-size="13" lengthAdjust="spacing" textLength="95">Open Data Path</text><path fill="#FEFFDD" d="M5,426.4719 L5,453.4719 L165,453.4719 L165,436.4719 L155,426.4719 L5,426.4719" style="stroke:#181818;stroke-width:.5"/><path fill="#FEFFDD" d="M155,426.4719 L155,436.4719 L165,436.4719 L155,426.4719" style="stroke:#181818;stroke-width:.5"/><text x="11" y="445.369" fill="#000" font-family="sans-serif" font-size="13" lengthAdjust="spacing" textLength="139">Prepare Capability data</text><polygon fill="#181818" points="241.5 478.884 251.5 482.884 241.5 486.884 245.5 482.884" style="stroke:#181818;stroke-width:1"/><line style="stroke:#181818;stroke-width:1" x1="84.5" x2="247.5" y1="482.884" y2="482.884"/><text x="91.5" y="477.075" fill="#000" font-family="sans-serif" font-size="13" lengthAdjust="spacing" textLength="111">Assert Data_Ready</text><polygon fill="#181818" points="95.5 510.59 85.5 514.59 95.5 518.59 91.5 514.59" style="stroke:#181818;stroke-width:1"/><line style="stroke:#181818;stroke-width:1" x1="89.5" x2="252.5" y1="514.59" y2="514.59"/><text x="101.5" y="508.781" fill="#000" font-family="sans-serif" font-size="13" lengthAdjust="spacing" textLength="61">Read Data</text><polygon fill="#181818" points="241.5 542.296 251.5 546.296 241.5 550.296 245.5 546.296" style="stroke:#181818;stroke-width:1"/><line style="stroke:#181818;stroke-width:1" x1="84.5" x2="247.5" y1="546.296" y2="546.296"/><text x="91.5" y="540.487" fill="#000" font-family="sans-serif" font-size="13" lengthAdjust="spacing" textLength="59">Capability</text><path fill="#FEFFDD" d="M184,559.2959 L184,604.2959 L323,604.2959 L323,569.2959 L313,559.2959 L184,559.2959" style="stroke:#181818;stroke-width:.5"/><path fill="#FEFFDD" d="M313,559.2959 L313,569.2959 L323,569.2959 L313,559.2959" style="stroke:#181818;stroke-width:.5"/><text x="190" y="578.193" fill="#000" font-family="sans-serif" font-size="13" lengthAdjust="spacing" textLength="98">Configure based</text><text x="190" y="595.899" fill="#000" font-family="sans-serif" font-size="13" lengthAdjust="spacing" textLength="118">on slave capabilities</text></g></svg>