<svg xmlns="http://www.w3.org/2000/svg" xmlns:xlink="http://www.w3.org/1999/xlink" style="width:339px;height:513px;background:#fff" width="339" height="513" contentStyleType="text/css" preserveAspectRatio="none" version="1.1" viewBox="0 0 339 513" zoomAndPan="magnify"><g><text x="107" y="29.966" fill="#000" font-family="sans-serif" font-size="14" font-weight="bold" lengthAdjust="spacing" textLength="122">SPI HD Host Read</text><line style="stroke:#181818;stroke-width:.5;stroke-dasharray:5,5" x1="80" x2="80" y1="79.136" y2="475.608"/><line style="stroke:#181818;stroke-width:.5;stroke-dasharray:5,5" x1="215.5" x2="215.5" y1="79.136" y2="475.608"/><rect style="stroke:#181818;stroke-width:.5" width="49" height="33.068" x="56" y="45.068" fill="#E2E2F0" rx="2.5" ry="2.5"/><text x="63" y="67.034" fill="#000" font-family="sans-serif" font-size="14" lengthAdjust="spacing" textLength="35">Slave</text><rect style="stroke:#181818;stroke-width:.5" width="49" height="33.068" x="56" y="474.608" fill="#E2E2F0" rx="2.5" ry="2.5"/><text x="63" y="496.574" fill="#000" font-family="sans-serif" font-size="14" lengthAdjust="spacing" textLength="35">Slave</text><rect style="stroke:#181818;stroke-width:.5" width="44" height="33.068" x="193.5" y="45.068" fill="#E2E2F0" rx="2.5" ry="2.5"/><text x="200.5" y="67.034" fill="#000" font-family="sans-serif" font-size="14" lengthAdjust="spacing" textLength="30">Host</text><rect style="stroke:#181818;stroke-width:.5" width="44" height="33.068" x="193.5" y="474.608" fill="#E2E2F0" rx="2.5" ry="2.5"/><text x="200.5" y="496.574" fill="#000" font-family="sans-serif" font-size="14" lengthAdjust="spacing" textLength="30">Host</text><path fill="#FEFFDD" d="M7,94.1358 L7,121.1358 L153,121.1358 L153,104.1358 L143,94.1358 L7,94.1358" style="stroke:#181818;stroke-width:.5"/><path fill="#FEFFDD" d="M143,94.1358 L143,104.1358 L153,104.1358 L143,94.1358" style="stroke:#181818;stroke-width:.5"/><text x="13" y="113.033" fill="#000" font-family="sans-serif" font-size="13" lengthAdjust="spacing" textLength="125">Prepare data to send</text><polygon fill="#181818" points="203.5 146.548 213.5 150.548 203.5 154.548 207.5 150.548" style="stroke:#181818;stroke-width:1"/><line style="stroke:#181818;stroke-width:1" x1="80.5" x2="209.5" y1="150.548" y2="150.548"/><text x="87.5" y="144.739" fill="#000" font-family="sans-serif" font-size="13" lengthAdjust="spacing" textLength="111">Assert Data_Ready</text><polygon fill="#181818" points="91.5 178.254 81.5 182.254 91.5 186.254 87.5 182.254" style="stroke:#181818;stroke-width:1"/><line style="stroke:#181818;stroke-width:1" x1="85.5" x2="214.5" y1="182.254" y2="182.254"/><text x="97.5" y="176.445" fill="#000" font-family="sans-serif" font-size="13" lengthAdjust="spacing" textLength="109">Read TX_BUF_LEN</text><path fill="#FEFFDD" d="M99,195.2539 L99,240.2539 L332,240.2539 L332,205.2539 L322,195.2539 L99,195.2539" style="stroke:#181818;stroke-width:.5"/><path fill="#FEFFDD" d="M322,195.2539 L322,205.2539 L332,205.2539 L322,195.2539" style="stroke:#181818;stroke-width:.5"/><text x="105" y="214.151" fill="#000" font-family="sans-serif" font-size="13" lengthAdjust="spacing" textLength="109">Bytes to transfer =</text><text x="105" y="231.857" fill="#000" font-family="sans-serif" font-size="13" lengthAdjust="spacing" textLength="212">TX_BUF_LEN - (cached)TX_BUF_LEN</text><polygon fill="#181818" points="91.5 265.372 81.5 269.372 91.5 273.372 87.5 269.372" style="stroke:#181818;stroke-width:1"/><line style="stroke:#181818;stroke-width:1" x1="85.5" x2="214.5" y1="269.372" y2="269.372"/><text x="97.5" y="263.563" fill="#000" font-family="sans-serif" font-size="13" lengthAdjust="spacing" textLength="69">Send CMD9</text><path fill="#FEFFDD" d="M5,282.3719 L5,309.3719 L157,309.3719 L157,292.3719 L147,282.3719 L5,282.3719" style="stroke:#181818;stroke-width:.5"/><path fill="#FEFFDD" d="M147,282.3719 L147,292.3719 L157,292.3719 L147,282.3719" style="stroke:#181818;stroke-width:.5"/><text x="11" y="301.269" fill="#000" font-family="sans-serif" font-size="13" lengthAdjust="spacing" textLength="131">De-Assert Data_Ready</text><polygon fill="#181818" points="91.5 334.784 81.5 338.784 91.5 342.784 87.5 338.784" style="stroke:#181818;stroke-width:1"/><line style="stroke:#181818;stroke-width:1" x1="85.5" x2="214.5" y1="338.784" y2="338.784"/><text x="97.5" y="332.975" fill="#000" font-family="sans-serif" font-size="13" lengthAdjust="spacing" textLength="79">Send RDDMA</text><polygon fill="#181818" points="203.5 366.49 213.5 370.49 203.5 374.49 207.5 370.49" style="stroke:#181818;stroke-width:1"/><line style="stroke:#181818;stroke-width:1" x1="80.5" x2="209.5" y1="370.49" y2="370.49"/><text x="87.5" y="364.681" fill="#000" font-family="sans-serif" font-size="13" lengthAdjust="spacing" textLength="80">Transfer Data</text><polygon fill="#181818" points="91.5 415.902 81.5 419.902 91.5 423.902 87.5 419.902" style="stroke:#181818;stroke-width:1"/><line style="stroke:#181818;stroke-width:1" x1="85.5" x2="214.5" y1="419.902" y2="419.902"/><text x="97.5" y="396.387" fill="#000" font-family="sans-serif" font-size="13" lengthAdjust="spacing" textLength="36">CMD8</text><text x="97.5" y="414.093" fill="#000" font-family="sans-serif" font-size="13" lengthAdjust="spacing" textLength="111">(at end of transfer)</text><path fill="#FEFFDD" d="M119,432.902 L119,459.902 L312,459.902 L312,442.902 L302,432.902 L119,432.902" style="stroke:#181818;stroke-width:.5"/><path fill="#FEFFDD" d="M302,432.902 L302,442.902 L312,442.902 L302,432.902" style="stroke:#181818;stroke-width:.5"/><text x="125" y="451.799" fill="#000" font-family="sans-serif" font-size="13" lengthAdjust="spacing" textLength="172">update (cached)TX_BUF_LEN</text></g></svg>