<svg xmlns="http://www.w3.org/2000/svg" xmlns:xlink="http://www.w3.org/1999/xlink" style="width:1313px;height:254px;background:#fff" width="1313" height="254" contentStyleType="text/css" preserveAspectRatio="none" version="1.1" viewBox="0 0 1313 254" zoomAndPan="magnify"><g><text x="511" y="34.966" fill="#000" font-family="sans-serif" font-size="14" font-weight="bold" lengthAdjust="spacing" textLength="288">SPI HD Transaction Using Four Data Lines</text><line style="stroke:#333;stroke-width:.5" x1="10" x2="10" y1="50.068" y2="242.236"/><line style="stroke:#333;stroke-width:.5" x1="1301" x2="1301" y1="50.068" y2="242.236"/><rect style="stroke:none;stroke-width:1" width="200" height="192.168" x="1046" y="50.068" fill="#EEE"/><line style="stroke:#333;stroke-width:.5;stroke-dasharray:3,5" x1="96" x2="96" y1="50.068" y2="242.236"/><line style="stroke:#333;stroke-width:.5;stroke-dasharray:3,5" x1="146" x2="146" y1="50.068" y2="242.236"/><line style="stroke:#333;stroke-width:.5;stroke-dasharray:3,5" x1="196" x2="196" y1="50.068" y2="242.236"/><line style="stroke:#333;stroke-width:.5;stroke-dasharray:3,5" x1="246" x2="246" y1="50.068" y2="242.236"/><line style="stroke:#333;stroke-width:.5;stroke-dasharray:3,5" x1="296" x2="296" y1="50.068" y2="242.236"/><line style="stroke:#333;stroke-width:.5;stroke-dasharray:3,5" x1="346" x2="346" y1="50.068" y2="242.236"/><line style="stroke:#333;stroke-width:.5;stroke-dasharray:3,5" x1="396" x2="396" y1="50.068" y2="242.236"/><line style="stroke:#333;stroke-width:.5;stroke-dasharray:3,5" x1="446" x2="446" y1="50.068" y2="242.236"/><line style="stroke:#333;stroke-width:.5;stroke-dasharray:3,5" x1="496" x2="496" y1="50.068" y2="242.236"/><line style="stroke:#333;stroke-width:.5;stroke-dasharray:3,5" x1="546" x2="546" y1="50.068" y2="242.236"/><line style="stroke:#333;stroke-width:.5;stroke-dasharray:3,5" x1="596" x2="596" y1="50.068" y2="242.236"/><line style="stroke:#333;stroke-width:.5;stroke-dasharray:3,5" x1="646" x2="646" y1="50.068" y2="242.236"/><line style="stroke:#333;stroke-width:.5;stroke-dasharray:3,5" x1="696" x2="696" y1="50.068" y2="242.236"/><line style="stroke:#333;stroke-width:.5;stroke-dasharray:3,5" x1="746" x2="746" y1="50.068" y2="242.236"/><line style="stroke:#333;stroke-width:.5;stroke-dasharray:3,5" x1="796" x2="796" y1="50.068" y2="242.236"/><line style="stroke:#333;stroke-width:.5;stroke-dasharray:3,5" x1="846" x2="846" y1="50.068" y2="242.236"/><line style="stroke:#333;stroke-width:.5;stroke-dasharray:3,5" x1="896" x2="896" y1="50.068" y2="242.236"/><line style="stroke:#333;stroke-width:.5;stroke-dasharray:3,5" x1="946" x2="946" y1="50.068" y2="242.236"/><line style="stroke:#333;stroke-width:.5;stroke-dasharray:3,5" x1="996" x2="996" y1="50.068" y2="242.236"/><line style="stroke:#333;stroke-width:.5;stroke-dasharray:3,5" x1="1046" x2="1046" y1="50.068" y2="242.236"/><line style="stroke:#333;stroke-width:.5;stroke-dasharray:3,5" x1="1096" x2="1096" y1="50.068" y2="242.236"/><line style="stroke:#333;stroke-width:.5;stroke-dasharray:3,5" x1="1146" x2="1146" y1="50.068" y2="242.236"/><line style="stroke:#333;stroke-width:.5;stroke-dasharray:3,5" x1="1196" x2="1196" y1="50.068" y2="242.236"/><line style="stroke:#333;stroke-width:.5;stroke-dasharray:3,5" x1="1246" x2="1246" y1="50.068" y2="242.236"/><line style="stroke:#333;stroke-width:.5;stroke-dasharray:3,5" x1="1296" x2="1296" y1="50.068" y2="242.236"/><line style="stroke:#333;stroke-width:.5" x1="10" x2="1301" y1="50.068" y2="50.068"/><text x="15" y="70.5" fill="#333" font-family="sans-serif" font-size="14" font-weight="bold" lengthAdjust="spacing" textLength="76">Chip Select</text><line style="stroke:#006400;stroke-width:2" x1="96" x2="96" y1="104.756" y2="104.756"/><line style="stroke:#006400;stroke-width:2" x1="96" x2="96" y1="90.756" y2="104.756"/><line style="stroke:#006400;stroke-width:2" x1="96" x2="146" y1="90.756" y2="90.756"/><line style="stroke:#006400;stroke-width:2" x1="146" x2="146" y1="90.756" y2="104.756"/><line style="stroke:#006400;stroke-width:2" x1="146" x2="1246" y1="104.756" y2="104.756"/><line style="stroke:#006400;stroke-width:2" x1="1246" x2="1246" y1="90.756" y2="104.756"/><line style="stroke:#006400;stroke-width:2" x1="1246" x2="1296" y1="90.756" y2="90.756"/><line style="stroke:#333;stroke-width:.5" x1="10" x2="1301" y1="112.756" y2="112.756"/><text x="15" y="127.722" fill="#333" font-family="sans-serif" font-size="14" font-weight="bold" lengthAdjust="spacing" textLength="38">Clock</text><line style="stroke:#333;stroke-width:.5" x1="10" x2="54" y1="132.824" y2="132.824"/><line style="stroke:#333;stroke-width:.5" x1="54" x2="64" y1="132.824" y2="112.756"/><line style="stroke:#006400;stroke-width:1.5" x1="96" x2="96" y1="139.824" y2="153.824"/><line style="stroke:#006400;stroke-width:1.5" x1="96" x2="121" y1="139.824" y2="139.824"/><line style="stroke:#006400;stroke-width:1.5" x1="121" x2="121" y1="139.824" y2="153.824"/><line style="stroke:#006400;stroke-width:1.5" x1="121" x2="146" y1="153.824" y2="153.824"/><line style="stroke:#006400;stroke-width:1.5" x1="146" x2="146" y1="139.824" y2="153.824"/><line style="stroke:#006400;stroke-width:1.5" x1="146" x2="171" y1="139.824" y2="139.824"/><line style="stroke:#006400;stroke-width:1.5" x1="171" x2="171" y1="139.824" y2="153.824"/><line style="stroke:#006400;stroke-width:1.5" x1="171" x2="196" y1="153.824" y2="153.824"/><line style="stroke:#006400;stroke-width:1.5" x1="196" x2="196" y1="139.824" y2="153.824"/><line style="stroke:#006400;stroke-width:1.5" x1="196" x2="221" y1="139.824" y2="139.824"/><line style="stroke:#006400;stroke-width:1.5" x1="221" x2="221" y1="139.824" y2="153.824"/><line style="stroke:#006400;stroke-width:1.5" x1="221" x2="246" y1="153.824" y2="153.824"/><line style="stroke:#006400;stroke-width:1.5" x1="246" x2="246" y1="139.824" y2="153.824"/><line style="stroke:#006400;stroke-width:1.5" x1="246" x2="271" y1="139.824" y2="139.824"/><line style="stroke:#006400;stroke-width:1.5" x1="271" x2="271" y1="139.824" y2="153.824"/><line style="stroke:#006400;stroke-width:1.5" x1="271" x2="296" y1="153.824" y2="153.824"/><line style="stroke:#006400;stroke-width:1.5" x1="296" x2="296" y1="139.824" y2="153.824"/><line style="stroke:#006400;stroke-width:1.5" x1="296" x2="321" y1="139.824" y2="139.824"/><line style="stroke:#006400;stroke-width:1.5" x1="321" x2="321" y1="139.824" y2="153.824"/><line style="stroke:#006400;stroke-width:1.5" x1="321" x2="346" y1="153.824" y2="153.824"/><line style="stroke:#006400;stroke-width:1.5" x1="346" x2="346" y1="139.824" y2="153.824"/><line style="stroke:#006400;stroke-width:1.5" x1="346" x2="371" y1="139.824" y2="139.824"/><line style="stroke:#006400;stroke-width:1.5" x1="371" x2="371" y1="139.824" y2="153.824"/><line style="stroke:#006400;stroke-width:1.5" x1="371" x2="396" y1="153.824" y2="153.824"/><line style="stroke:#006400;stroke-width:1.5" x1="396" x2="396" y1="139.824" y2="153.824"/><line style="stroke:#006400;stroke-width:1.5" x1="396" x2="421" y1="139.824" y2="139.824"/><line style="stroke:#006400;stroke-width:1.5" x1="421" x2="421" y1="139.824" y2="153.824"/><line style="stroke:#006400;stroke-width:1.5" x1="421" x2="446" y1="153.824" y2="153.824"/><line style="stroke:#006400;stroke-width:1.5" x1="446" x2="446" y1="139.824" y2="153.824"/><line style="stroke:#006400;stroke-width:1.5" x1="446" x2="471" y1="139.824" y2="139.824"/><line style="stroke:#006400;stroke-width:1.5" x1="471" x2="471" y1="139.824" y2="153.824"/><line style="stroke:#006400;stroke-width:1.5" x1="471" x2="496" y1="153.824" y2="153.824"/><line style="stroke:#006400;stroke-width:1.5" x1="496" x2="496" y1="139.824" y2="153.824"/><line style="stroke:#006400;stroke-width:1.5" x1="496" x2="521" y1="139.824" y2="139.824"/><line style="stroke:#006400;stroke-width:1.5" x1="521" x2="521" y1="139.824" y2="153.824"/><line style="stroke:#006400;stroke-width:1.5" x1="521" x2="546" y1="153.824" y2="153.824"/><line style="stroke:#006400;stroke-width:1.5" x1="546" x2="546" y1="139.824" y2="153.824"/><line style="stroke:#006400;stroke-width:1.5" x1="546" x2="571" y1="139.824" y2="139.824"/><line style="stroke:#006400;stroke-width:1.5" x1="571" x2="571" y1="139.824" y2="153.824"/><line style="stroke:#006400;stroke-width:1.5" x1="571" x2="596" y1="153.824" y2="153.824"/><line style="stroke:#006400;stroke-width:1.5" x1="596" x2="596" y1="139.824" y2="153.824"/><line style="stroke:#006400;stroke-width:1.5" x1="596" x2="621" y1="139.824" y2="139.824"/><line style="stroke:#006400;stroke-width:1.5" x1="621" x2="621" y1="139.824" y2="153.824"/><line style="stroke:#006400;stroke-width:1.5" x1="621" x2="646" y1="153.824" y2="153.824"/><line style="stroke:#006400;stroke-width:1.5" x1="646" x2="646" y1="139.824" y2="153.824"/><line style="stroke:#006400;stroke-width:1.5" x1="646" x2="671" y1="139.824" y2="139.824"/><line style="stroke:#006400;stroke-width:1.5" x1="671" x2="671" y1="139.824" y2="153.824"/><line style="stroke:#006400;stroke-width:1.5" x1="671" x2="696" y1="153.824" y2="153.824"/><line style="stroke:#006400;stroke-width:1.5" x1="696" x2="696" y1="139.824" y2="153.824"/><line style="stroke:#006400;stroke-width:1.5" x1="696" x2="721" y1="139.824" y2="139.824"/><line style="stroke:#006400;stroke-width:1.5" x1="721" x2="721" y1="139.824" y2="153.824"/><line style="stroke:#006400;stroke-width:1.5" x1="721" x2="746" y1="153.824" y2="153.824"/><line style="stroke:#006400;stroke-width:1.5" x1="746" x2="746" y1="139.824" y2="153.824"/><line style="stroke:#006400;stroke-width:1.5" x1="746" x2="771" y1="139.824" y2="139.824"/><line style="stroke:#006400;stroke-width:1.5" x1="771" x2="771" y1="139.824" y2="153.824"/><line style="stroke:#006400;stroke-width:1.5" x1="771" x2="796" y1="153.824" y2="153.824"/><line style="stroke:#006400;stroke-width:1.5" x1="796" x2="796" y1="139.824" y2="153.824"/><line style="stroke:#006400;stroke-width:1.5" x1="796" x2="821" y1="139.824" y2="139.824"/><line style="stroke:#006400;stroke-width:1.5" x1="821" x2="821" y1="139.824" y2="153.824"/><line style="stroke:#006400;stroke-width:1.5" x1="821" x2="846" y1="153.824" y2="153.824"/><line style="stroke:#006400;stroke-width:1.5" x1="846" x2="846" y1="139.824" y2="153.824"/><line style="stroke:#006400;stroke-width:1.5" x1="846" x2="871" y1="139.824" y2="139.824"/><line style="stroke:#006400;stroke-width:1.5" x1="871" x2="871" y1="139.824" y2="153.824"/><line style="stroke:#006400;stroke-width:1.5" x1="871" x2="896" y1="153.824" y2="153.824"/><line style="stroke:#006400;stroke-width:1.5" x1="896" x2="896" y1="139.824" y2="153.824"/><line style="stroke:#006400;stroke-width:1.5" x1="896" x2="921" y1="139.824" y2="139.824"/><line style="stroke:#006400;stroke-width:1.5" x1="921" x2="921" y1="139.824" y2="153.824"/><line style="stroke:#006400;stroke-width:1.5" x1="921" x2="946" y1="153.824" y2="153.824"/><line style="stroke:#006400;stroke-width:1.5" x1="946" x2="946" y1="139.824" y2="153.824"/><line style="stroke:#006400;stroke-width:1.5" x1="946" x2="971" y1="139.824" y2="139.824"/><line style="stroke:#006400;stroke-width:1.5" x1="971" x2="971" y1="139.824" y2="153.824"/><line style="stroke:#006400;stroke-width:1.5" x1="971" x2="996" y1="153.824" y2="153.824"/><line style="stroke:#006400;stroke-width:1.5" x1="996" x2="996" y1="139.824" y2="153.824"/><line style="stroke:#006400;stroke-width:1.5" x1="996" x2="1021" y1="139.824" y2="139.824"/><line style="stroke:#006400;stroke-width:1.5" x1="1021" x2="1021" y1="139.824" y2="153.824"/><line style="stroke:#006400;stroke-width:1.5" x1="1021" x2="1046" y1="153.824" y2="153.824"/><line style="stroke:#006400;stroke-width:1.5" x1="1046" x2="1046" y1="139.824" y2="153.824"/><line style="stroke:#006400;stroke-width:1.5" x1="1046" x2="1071" y1="139.824" y2="139.824"/><line style="stroke:#006400;stroke-width:1.5" x1="1071" x2="1071" y1="139.824" y2="153.824"/><line style="stroke:#006400;stroke-width:1.5" x1="1071" x2="1096" y1="153.824" y2="153.824"/><line style="stroke:#006400;stroke-width:1.5" x1="1096" x2="1096" y1="139.824" y2="153.824"/><line style="stroke:#006400;stroke-width:1.5" x1="1096" x2="1121" y1="139.824" y2="139.824"/><line style="stroke:#006400;stroke-width:1.5" x1="1121" x2="1121" y1="139.824" y2="153.824"/><line style="stroke:#006400;stroke-width:1.5" x1="1121" x2="1146" y1="153.824" y2="153.824"/><line style="stroke:#006400;stroke-width:1.5" x1="1146" x2="1146" y1="139.824" y2="153.824"/><line style="stroke:#006400;stroke-width:1.5" x1="1146" x2="1171" y1="139.824" y2="139.824"/><line style="stroke:#006400;stroke-width:1.5" x1="1171" x2="1171" y1="139.824" y2="153.824"/><line style="stroke:#006400;stroke-width:1.5" x1="1171" x2="1196" y1="153.824" y2="153.824"/><line style="stroke:#006400;stroke-width:1.5" x1="1196" x2="1196" y1="139.824" y2="153.824"/><line style="stroke:#006400;stroke-width:1.5" x1="1196" x2="1221" y1="139.824" y2="139.824"/><line style="stroke:#006400;stroke-width:1.5" x1="1221" x2="1221" y1="139.824" y2="153.824"/><line style="stroke:#006400;stroke-width:1.5" x1="1221" x2="1246" y1="153.824" y2="153.824"/><line style="stroke:#006400;stroke-width:1.5" x1="1246" x2="1246" y1="139.824" y2="153.824"/><line style="stroke:#006400;stroke-width:1.5" x1="1246" x2="1271" y1="139.824" y2="139.824"/><line style="stroke:#006400;stroke-width:1.5" x1="1271" x2="1271" y1="139.824" y2="153.824"/><line style="stroke:#006400;stroke-width:1.5" x1="1271" x2="1296" y1="153.824" y2="153.824"/><line style="stroke:#006400;stroke-width:1.5" x1="1296" x2="1296" y1="139.824" y2="153.824"/><line style="stroke:#006400;stroke-width:1.5" x1="1296" x2="1296" y1="139.824" y2="139.824"/><line style="stroke:#333;stroke-width:.5" x1="10" x2="1301" y1="161.824" y2="161.824"/><text x="15" y="176.79" fill="#333" font-family="sans-serif" font-size="14" font-weight="bold" lengthAdjust="spacing" textLength="53">Data0-3</text><line style="stroke:#333;stroke-width:.5" x1="10" x2="69" y1="181.892" y2="181.892"/><line style="stroke:#333;stroke-width:.5" x1="69" x2="79" y1="181.892" y2="161.824"/><line style="stroke:#006400;stroke-width:1.5" x1="96" x2="146" y1="220.236" y2="220.236"/><polygon fill="#E2E2F0" points="158 208.236 534 208.236 546 220.236 534 232.236 158 232.236 146 220.236" style="stroke:#006400;stroke-width:1.5"/><polygon fill="#E2E2F0" points="558 208.236 634 208.236 646 220.236 634 232.236 558 232.236 546 220.236" style="stroke:#006400;stroke-width:1.5"/><polygon fill="#E2E2F0" points="658 208.236 1034 208.236 1046 220.236 1034 232.236 658 232.236 646 220.236" style="stroke:#006400;stroke-width:1.5"/><polygon fill="#E2E2F0" points="1058 208.236 1134 208.236 1146 220.236 1134 232.236 1058 232.236 1046 220.236" style="stroke:#006400;stroke-width:1.5"/><polygon fill="#E2E2F0" points="1158 208.236 1234 208.236 1246 220.236 1234 232.236 1158 232.236 1146 220.236" style="stroke:#006400;stroke-width:1.5"/><line style="stroke:#006400;stroke-width:1.5" x1="1246" x2="1296" y1="220.236" y2="220.236"/><text x="287" y="224.892" fill="#333" font-family="sans-serif" font-size="12" font-weight="bold" lengthAdjust="spacing" textLength="118">Command (D0 only)</text><text x="553" y="224.892" fill="#333" font-family="sans-serif" font-size="12" font-weight="bold" lengthAdjust="spacing" textLength="86">Address (D0-3)</text><text x="822" y="224.892" fill="#333" font-family="sans-serif" font-size="12" font-weight="bold" lengthAdjust="spacing" textLength="48">Dummy</text><text x="1063" y="224.892" fill="#333" font-family="sans-serif" font-size="12" font-weight="bold" lengthAdjust="spacing" textLength="66">Data (D0-3)</text><text x="1191.5" y="224.892" fill="#333" font-family="sans-serif" font-size="12" font-weight="bold" lengthAdjust="spacing" textLength="9">...</text><line style="stroke:#8b0000;stroke-width:1.5" x1="147" x2="545" y1="197.564" y2="197.564"/><polygon fill="#8B0000" points="155 201.564 155 193.564 147 197.564" style="stroke:#8b0000;stroke-width:1"/><polygon fill="#8B0000" points="537 201.564 537 193.564 545 197.564" style="stroke:#8b0000;stroke-width:1"/><text x="333.5" y="189.048" fill="#8B0000" font-family="sans-serif" font-size="12" lengthAdjust="spacing" textLength="25">8 clk</text><line style="stroke:#8b0000;stroke-width:1.5" x1="547" x2="645" y1="197.564" y2="197.564"/><polygon fill="#8B0000" points="555 201.564 555 193.564 547 197.564" style="stroke:#8b0000;stroke-width:1"/><polygon fill="#8B0000" points="637 201.564 637 193.564 645 197.564" style="stroke:#8b0000;stroke-width:1"/><text x="583.5" y="189.048" fill="#8B0000" font-family="sans-serif" font-size="12" lengthAdjust="spacing" textLength="25">2 clk</text><line style="stroke:#8b0000;stroke-width:1.5" x1="647" x2="1045" y1="197.564" y2="197.564"/><polygon fill="#8B0000" points="655 201.564 655 193.564 647 197.564" style="stroke:#8b0000;stroke-width:1"/><polygon fill="#8B0000" points="1037 201.564 1037 193.564 1045 197.564" style="stroke:#8b0000;stroke-width:1"/><text x="833.5" y="189.048" fill="#8B0000" font-family="sans-serif" font-size="12" lengthAdjust="spacing" textLength="25">8 clk</text><line style="stroke:#8b0000;stroke-width:1.5" x1="1047" x2="1145" y1="197.564" y2="197.564"/><polygon fill="#8B0000" points="1055 201.564 1055 193.564 1047 197.564" style="stroke:#8b0000;stroke-width:1"/><polygon fill="#8B0000" points="1137 201.564 1137 193.564 1145 197.564" style="stroke:#8b0000;stroke-width:1"/><text x="1083.5" y="189.048" fill="#8B0000" font-family="sans-serif" font-size="12" lengthAdjust="spacing" textLength="25">2 clk</text><line style="stroke:#8b0000;stroke-width:1.5" x1="1147" x2="1245" y1="197.564" y2="197.564"/><polygon fill="#8B0000" points="1155 201.564 1155 193.564 1147 197.564" style="stroke:#8b0000;stroke-width:1"/><polygon fill="#8B0000" points="1237 201.564 1237 193.564 1245 197.564" style="stroke:#8b0000;stroke-width:1"/><text x="1183.5" y="189.048" fill="#8B0000" font-family="sans-serif" font-size="12" lengthAdjust="spacing" textLength="25">2 clk</text><line style="stroke:#333;stroke-width:2;stroke-dasharray:4,4" x1="1046" x2="1046" y1="50.068" y2="242.236"/><line style="stroke:#333;stroke-width:2;stroke-dasharray:4,4" x1="1246" x2="1246" y1="50.068" y2="242.236"/><text x="1049" y="64.896" fill="#000" font-family="sans-serif" font-size="12" lengthAdjust="spacing" textLength="162">Optional for SPI Transactions</text><text x="1049" y="81.24" fill="#000" font-family="sans-serif" font-size="12" lengthAdjust="spacing" textLength="69">without data</text></g></svg>