<svg xmlns="http://www.w3.org/2000/svg" xmlns:xlink="http://www.w3.org/1999/xlink" style="width:1613px;height:254px;background:#fff" width="1613" height="254" contentStyleType="text/css" preserveAspectRatio="none" version="1.1" viewBox="0 0 1613 254" zoomAndPan="magnify"><g><text x="662.5" y="34.966" fill="#000" font-family="sans-serif" font-size="14" font-weight="bold" lengthAdjust="spacing" textLength="285">SPI HD Transaction Using Two Data Lines</text><line style="stroke:#333;stroke-width:.5" x1="10" x2="10" y1="50.068" y2="242.236"/><line style="stroke:#333;stroke-width:.5" x1="1601" x2="1601" y1="50.068" y2="242.236"/><rect style="stroke:none;stroke-width:1" width="400" height="192.168" x="1146" y="50.068" fill="#EEE"/><line style="stroke:#333;stroke-width:.5;stroke-dasharray:3,5" x1="96" x2="96" y1="50.068" y2="242.236"/><line style="stroke:#333;stroke-width:.5;stroke-dasharray:3,5" x1="146" x2="146" y1="50.068" y2="242.236"/><line style="stroke:#333;stroke-width:.5;stroke-dasharray:3,5" x1="196" x2="196" y1="50.068" y2="242.236"/><line style="stroke:#333;stroke-width:.5;stroke-dasharray:3,5" x1="246" x2="246" y1="50.068" y2="242.236"/><line style="stroke:#333;stroke-width:.5;stroke-dasharray:3,5" x1="296" x2="296" y1="50.068" y2="242.236"/><line style="stroke:#333;stroke-width:.5;stroke-dasharray:3,5" x1="346" x2="346" y1="50.068" y2="242.236"/><line style="stroke:#333;stroke-width:.5;stroke-dasharray:3,5" x1="396" x2="396" y1="50.068" y2="242.236"/><line style="stroke:#333;stroke-width:.5;stroke-dasharray:3,5" x1="446" x2="446" y1="50.068" y2="242.236"/><line style="stroke:#333;stroke-width:.5;stroke-dasharray:3,5" x1="496" x2="496" y1="50.068" y2="242.236"/><line style="stroke:#333;stroke-width:.5;stroke-dasharray:3,5" x1="546" x2="546" y1="50.068" y2="242.236"/><line style="stroke:#333;stroke-width:.5;stroke-dasharray:3,5" x1="596" x2="596" y1="50.068" y2="242.236"/><line style="stroke:#333;stroke-width:.5;stroke-dasharray:3,5" x1="646" x2="646" y1="50.068" y2="242.236"/><line style="stroke:#333;stroke-width:.5;stroke-dasharray:3,5" x1="696" x2="696" y1="50.068" y2="242.236"/><line style="stroke:#333;stroke-width:.5;stroke-dasharray:3,5" x1="746" x2="746" y1="50.068" y2="242.236"/><line style="stroke:#333;stroke-width:.5;stroke-dasharray:3,5" x1="796" x2="796" y1="50.068" y2="242.236"/><line style="stroke:#333;stroke-width:.5;stroke-dasharray:3,5" x1="846" x2="846" y1="50.068" y2="242.236"/><line style="stroke:#333;stroke-width:.5;stroke-dasharray:3,5" x1="896" x2="896" y1="50.068" y2="242.236"/><line style="stroke:#333;stroke-width:.5;stroke-dasharray:3,5" x1="946" x2="946" y1="50.068" y2="242.236"/><line style="stroke:#333;stroke-width:.5;stroke-dasharray:3,5" x1="996" x2="996" y1="50.068" y2="242.236"/><line style="stroke:#333;stroke-width:.5;stroke-dasharray:3,5" x1="1046" x2="1046" y1="50.068" y2="242.236"/><line style="stroke:#333;stroke-width:.5;stroke-dasharray:3,5" x1="1096" x2="1096" y1="50.068" y2="242.236"/><line style="stroke:#333;stroke-width:.5;stroke-dasharray:3,5" x1="1146" x2="1146" y1="50.068" y2="242.236"/><line style="stroke:#333;stroke-width:.5;stroke-dasharray:3,5" x1="1196" x2="1196" y1="50.068" y2="242.236"/><line style="stroke:#333;stroke-width:.5;stroke-dasharray:3,5" x1="1246" x2="1246" y1="50.068" y2="242.236"/><line style="stroke:#333;stroke-width:.5;stroke-dasharray:3,5" x1="1296" x2="1296" y1="50.068" y2="242.236"/><line style="stroke:#333;stroke-width:.5;stroke-dasharray:3,5" x1="1346" x2="1346" y1="50.068" y2="242.236"/><line style="stroke:#333;stroke-width:.5;stroke-dasharray:3,5" x1="1396" x2="1396" y1="50.068" y2="242.236"/><line style="stroke:#333;stroke-width:.5;stroke-dasharray:3,5" x1="1446" x2="1446" y1="50.068" y2="242.236"/><line style="stroke:#333;stroke-width:.5;stroke-dasharray:3,5" x1="1496" x2="1496" y1="50.068" y2="242.236"/><line style="stroke:#333;stroke-width:.5;stroke-dasharray:3,5" x1="1546" x2="1546" y1="50.068" y2="242.236"/><line style="stroke:#333;stroke-width:.5;stroke-dasharray:3,5" x1="1596" x2="1596" y1="50.068" y2="242.236"/><line style="stroke:#333;stroke-width:.5" x1="10" x2="1601" y1="50.068" y2="50.068"/><text x="15" y="70.5" fill="#333" font-family="sans-serif" font-size="14" font-weight="bold" lengthAdjust="spacing" textLength="76">Chip Select</text><line style="stroke:#006400;stroke-width:2" x1="96" x2="96" y1="104.756" y2="104.756"/><line style="stroke:#006400;stroke-width:2" x1="96" x2="96" y1="90.756" y2="104.756"/><line style="stroke:#006400;stroke-width:2" x1="96" x2="146" y1="90.756" y2="90.756"/><line style="stroke:#006400;stroke-width:2" x1="146" x2="146" y1="90.756" y2="104.756"/><line style="stroke:#006400;stroke-width:2" x1="146" x2="1546" y1="104.756" y2="104.756"/><line style="stroke:#006400;stroke-width:2" x1="1546" x2="1546" y1="90.756" y2="104.756"/><line style="stroke:#006400;stroke-width:2" x1="1546" x2="1596" y1="90.756" y2="90.756"/><line style="stroke:#333;stroke-width:.5" x1="10" x2="1601" y1="112.756" y2="112.756"/><text x="15" y="127.722" fill="#333" font-family="sans-serif" font-size="14" font-weight="bold" lengthAdjust="spacing" textLength="38">Clock</text><line style="stroke:#333;stroke-width:.5" x1="10" x2="54" y1="132.824" y2="132.824"/><line style="stroke:#333;stroke-width:.5" x1="54" x2="64" y1="132.824" y2="112.756"/><line style="stroke:#006400;stroke-width:1.5" x1="96" x2="96" y1="139.824" y2="153.824"/><line style="stroke:#006400;stroke-width:1.5" x1="96" x2="121" y1="139.824" y2="139.824"/><line style="stroke:#006400;stroke-width:1.5" x1="121" x2="121" y1="139.824" y2="153.824"/><line style="stroke:#006400;stroke-width:1.5" x1="121" x2="146" y1="153.824" y2="153.824"/><line style="stroke:#006400;stroke-width:1.5" x1="146" x2="146" y1="139.824" y2="153.824"/><line style="stroke:#006400;stroke-width:1.5" x1="146" x2="171" y1="139.824" y2="139.824"/><line style="stroke:#006400;stroke-width:1.5" x1="171" x2="171" y1="139.824" y2="153.824"/><line style="stroke:#006400;stroke-width:1.5" x1="171" x2="196" y1="153.824" y2="153.824"/><line style="stroke:#006400;stroke-width:1.5" x1="196" x2="196" y1="139.824" y2="153.824"/><line style="stroke:#006400;stroke-width:1.5" x1="196" x2="221" y1="139.824" y2="139.824"/><line style="stroke:#006400;stroke-width:1.5" x1="221" x2="221" y1="139.824" y2="153.824"/><line style="stroke:#006400;stroke-width:1.5" x1="221" x2="246" y1="153.824" y2="153.824"/><line style="stroke:#006400;stroke-width:1.5" x1="246" x2="246" y1="139.824" y2="153.824"/><line style="stroke:#006400;stroke-width:1.5" x1="246" x2="271" y1="139.824" y2="139.824"/><line style="stroke:#006400;stroke-width:1.5" x1="271" x2="271" y1="139.824" y2="153.824"/><line style="stroke:#006400;stroke-width:1.5" x1="271" x2="296" y1="153.824" y2="153.824"/><line style="stroke:#006400;stroke-width:1.5" x1="296" x2="296" y1="139.824" y2="153.824"/><line style="stroke:#006400;stroke-width:1.5" x1="296" x2="321" y1="139.824" y2="139.824"/><line style="stroke:#006400;stroke-width:1.5" x1="321" x2="321" y1="139.824" y2="153.824"/><line style="stroke:#006400;stroke-width:1.5" x1="321" x2="346" y1="153.824" y2="153.824"/><line style="stroke:#006400;stroke-width:1.5" x1="346" x2="346" y1="139.824" y2="153.824"/><line style="stroke:#006400;stroke-width:1.5" x1="346" x2="371" y1="139.824" y2="139.824"/><line style="stroke:#006400;stroke-width:1.5" x1="371" x2="371" y1="139.824" y2="153.824"/><line style="stroke:#006400;stroke-width:1.5" x1="371" x2="396" y1="153.824" y2="153.824"/><line style="stroke:#006400;stroke-width:1.5" x1="396" x2="396" y1="139.824" y2="153.824"/><line style="stroke:#006400;stroke-width:1.5" x1="396" x2="421" y1="139.824" y2="139.824"/><line style="stroke:#006400;stroke-width:1.5" x1="421" x2="421" y1="139.824" y2="153.824"/><line style="stroke:#006400;stroke-width:1.5" x1="421" x2="446" y1="153.824" y2="153.824"/><line style="stroke:#006400;stroke-width:1.5" x1="446" x2="446" y1="139.824" y2="153.824"/><line style="stroke:#006400;stroke-width:1.5" x1="446" x2="471" y1="139.824" y2="139.824"/><line style="stroke:#006400;stroke-width:1.5" x1="471" x2="471" y1="139.824" y2="153.824"/><line style="stroke:#006400;stroke-width:1.5" x1="471" x2="496" y1="153.824" y2="153.824"/><line style="stroke:#006400;stroke-width:1.5" x1="496" x2="496" y1="139.824" y2="153.824"/><line style="stroke:#006400;stroke-width:1.5" x1="496" x2="521" y1="139.824" y2="139.824"/><line style="stroke:#006400;stroke-width:1.5" x1="521" x2="521" y1="139.824" y2="153.824"/><line style="stroke:#006400;stroke-width:1.5" x1="521" x2="546" y1="153.824" y2="153.824"/><line style="stroke:#006400;stroke-width:1.5" x1="546" x2="546" y1="139.824" y2="153.824"/><line style="stroke:#006400;stroke-width:1.5" x1="546" x2="571" y1="139.824" y2="139.824"/><line style="stroke:#006400;stroke-width:1.5" x1="571" x2="571" y1="139.824" y2="153.824"/><line style="stroke:#006400;stroke-width:1.5" x1="571" x2="596" y1="153.824" y2="153.824"/><line style="stroke:#006400;stroke-width:1.5" x1="596" x2="596" y1="139.824" y2="153.824"/><line style="stroke:#006400;stroke-width:1.5" x1="596" x2="621" y1="139.824" y2="139.824"/><line style="stroke:#006400;stroke-width:1.5" x1="621" x2="621" y1="139.824" y2="153.824"/><line style="stroke:#006400;stroke-width:1.5" x1="621" x2="646" y1="153.824" y2="153.824"/><line style="stroke:#006400;stroke-width:1.5" x1="646" x2="646" y1="139.824" y2="153.824"/><line style="stroke:#006400;stroke-width:1.5" x1="646" x2="671" y1="139.824" y2="139.824"/><line style="stroke:#006400;stroke-width:1.5" x1="671" x2="671" y1="139.824" y2="153.824"/><line style="stroke:#006400;stroke-width:1.5" x1="671" x2="696" y1="153.824" y2="153.824"/><line style="stroke:#006400;stroke-width:1.5" x1="696" x2="696" y1="139.824" y2="153.824"/><line style="stroke:#006400;stroke-width:1.5" x1="696" x2="721" y1="139.824" y2="139.824"/><line style="stroke:#006400;stroke-width:1.5" x1="721" x2="721" y1="139.824" y2="153.824"/><line style="stroke:#006400;stroke-width:1.5" x1="721" x2="746" y1="153.824" y2="153.824"/><line style="stroke:#006400;stroke-width:1.5" x1="746" x2="746" y1="139.824" y2="153.824"/><line style="stroke:#006400;stroke-width:1.5" x1="746" x2="771" y1="139.824" y2="139.824"/><line style="stroke:#006400;stroke-width:1.5" x1="771" x2="771" y1="139.824" y2="153.824"/><line style="stroke:#006400;stroke-width:1.5" x1="771" x2="796" y1="153.824" y2="153.824"/><line style="stroke:#006400;stroke-width:1.5" x1="796" x2="796" y1="139.824" y2="153.824"/><line style="stroke:#006400;stroke-width:1.5" x1="796" x2="821" y1="139.824" y2="139.824"/><line style="stroke:#006400;stroke-width:1.5" x1="821" x2="821" y1="139.824" y2="153.824"/><line style="stroke:#006400;stroke-width:1.5" x1="821" x2="846" y1="153.824" y2="153.824"/><line style="stroke:#006400;stroke-width:1.5" x1="846" x2="846" y1="139.824" y2="153.824"/><line style="stroke:#006400;stroke-width:1.5" x1="846" x2="871" y1="139.824" y2="139.824"/><line style="stroke:#006400;stroke-width:1.5" x1="871" x2="871" y1="139.824" y2="153.824"/><line style="stroke:#006400;stroke-width:1.5" x1="871" x2="896" y1="153.824" y2="153.824"/><line style="stroke:#006400;stroke-width:1.5" x1="896" x2="896" y1="139.824" y2="153.824"/><line style="stroke:#006400;stroke-width:1.5" x1="896" x2="921" y1="139.824" y2="139.824"/><line style="stroke:#006400;stroke-width:1.5" x1="921" x2="921" y1="139.824" y2="153.824"/><line style="stroke:#006400;stroke-width:1.5" x1="921" x2="946" y1="153.824" y2="153.824"/><line style="stroke:#006400;stroke-width:1.5" x1="946" x2="946" y1="139.824" y2="153.824"/><line style="stroke:#006400;stroke-width:1.5" x1="946" x2="971" y1="139.824" y2="139.824"/><line style="stroke:#006400;stroke-width:1.5" x1="971" x2="971" y1="139.824" y2="153.824"/><line style="stroke:#006400;stroke-width:1.5" x1="971" x2="996" y1="153.824" y2="153.824"/><line style="stroke:#006400;stroke-width:1.5" x1="996" x2="996" y1="139.824" y2="153.824"/><line style="stroke:#006400;stroke-width:1.5" x1="996" x2="1021" y1="139.824" y2="139.824"/><line style="stroke:#006400;stroke-width:1.5" x1="1021" x2="1021" y1="139.824" y2="153.824"/><line style="stroke:#006400;stroke-width:1.5" x1="1021" x2="1046" y1="153.824" y2="153.824"/><line style="stroke:#006400;stroke-width:1.5" x1="1046" x2="1046" y1="139.824" y2="153.824"/><line style="stroke:#006400;stroke-width:1.5" x1="1046" x2="1071" y1="139.824" y2="139.824"/><line style="stroke:#006400;stroke-width:1.5" x1="1071" x2="1071" y1="139.824" y2="153.824"/><line style="stroke:#006400;stroke-width:1.5" x1="1071" x2="1096" y1="153.824" y2="153.824"/><line style="stroke:#006400;stroke-width:1.5" x1="1096" x2="1096" y1="139.824" y2="153.824"/><line style="stroke:#006400;stroke-width:1.5" x1="1096" x2="1121" y1="139.824" y2="139.824"/><line style="stroke:#006400;stroke-width:1.5" x1="1121" x2="1121" y1="139.824" y2="153.824"/><line style="stroke:#006400;stroke-width:1.5" x1="1121" x2="1146" y1="153.824" y2="153.824"/><line style="stroke:#006400;stroke-width:1.5" x1="1146" x2="1146" y1="139.824" y2="153.824"/><line style="stroke:#006400;stroke-width:1.5" x1="1146" x2="1171" y1="139.824" y2="139.824"/><line style="stroke:#006400;stroke-width:1.5" x1="1171" x2="1171" y1="139.824" y2="153.824"/><line style="stroke:#006400;stroke-width:1.5" x1="1171" x2="1196" y1="153.824" y2="153.824"/><line style="stroke:#006400;stroke-width:1.5" x1="1196" x2="1196" y1="139.824" y2="153.824"/><line style="stroke:#006400;stroke-width:1.5" x1="1196" x2="1221" y1="139.824" y2="139.824"/><line style="stroke:#006400;stroke-width:1.5" x1="1221" x2="1221" y1="139.824" y2="153.824"/><line style="stroke:#006400;stroke-width:1.5" x1="1221" x2="1246" y1="153.824" y2="153.824"/><line style="stroke:#006400;stroke-width:1.5" x1="1246" x2="1246" y1="139.824" y2="153.824"/><line style="stroke:#006400;stroke-width:1.5" x1="1246" x2="1271" y1="139.824" y2="139.824"/><line style="stroke:#006400;stroke-width:1.5" x1="1271" x2="1271" y1="139.824" y2="153.824"/><line style="stroke:#006400;stroke-width:1.5" x1="1271" x2="1296" y1="153.824" y2="153.824"/><line style="stroke:#006400;stroke-width:1.5" x1="1296" x2="1296" y1="139.824" y2="153.824"/><line style="stroke:#006400;stroke-width:1.5" x1="1296" x2="1321" y1="139.824" y2="139.824"/><line style="stroke:#006400;stroke-width:1.5" x1="1321" x2="1321" y1="139.824" y2="153.824"/><line style="stroke:#006400;stroke-width:1.5" x1="1321" x2="1346" y1="153.824" y2="153.824"/><line style="stroke:#006400;stroke-width:1.5" x1="1346" x2="1346" y1="139.824" y2="153.824"/><line style="stroke:#006400;stroke-width:1.5" x1="1346" x2="1371" y1="139.824" y2="139.824"/><line style="stroke:#006400;stroke-width:1.5" x1="1371" x2="1371" y1="139.824" y2="153.824"/><line style="stroke:#006400;stroke-width:1.5" x1="1371" x2="1396" y1="153.824" y2="153.824"/><line style="stroke:#006400;stroke-width:1.5" x1="1396" x2="1396" y1="139.824" y2="153.824"/><line style="stroke:#006400;stroke-width:1.5" x1="1396" x2="1421" y1="139.824" y2="139.824"/><line style="stroke:#006400;stroke-width:1.5" x1="1421" x2="1421" y1="139.824" y2="153.824"/><line style="stroke:#006400;stroke-width:1.5" x1="1421" x2="1446" y1="153.824" y2="153.824"/><line style="stroke:#006400;stroke-width:1.5" x1="1446" x2="1446" y1="139.824" y2="153.824"/><line style="stroke:#006400;stroke-width:1.5" x1="1446" x2="1471" y1="139.824" y2="139.824"/><line style="stroke:#006400;stroke-width:1.5" x1="1471" x2="1471" y1="139.824" y2="153.824"/><line style="stroke:#006400;stroke-width:1.5" x1="1471" x2="1496" y1="153.824" y2="153.824"/><line style="stroke:#006400;stroke-width:1.5" x1="1496" x2="1496" y1="139.824" y2="153.824"/><line style="stroke:#006400;stroke-width:1.5" x1="1496" x2="1521" y1="139.824" y2="139.824"/><line style="stroke:#006400;stroke-width:1.5" x1="1521" x2="1521" y1="139.824" y2="153.824"/><line style="stroke:#006400;stroke-width:1.5" x1="1521" x2="1546" y1="153.824" y2="153.824"/><line style="stroke:#006400;stroke-width:1.5" x1="1546" x2="1546" y1="139.824" y2="153.824"/><line style="stroke:#006400;stroke-width:1.5" x1="1546" x2="1571" y1="139.824" y2="139.824"/><line style="stroke:#006400;stroke-width:1.5" x1="1571" x2="1571" y1="139.824" y2="153.824"/><line style="stroke:#006400;stroke-width:1.5" x1="1571" x2="1596" y1="153.824" y2="153.824"/><line style="stroke:#006400;stroke-width:1.5" x1="1596" x2="1596" y1="139.824" y2="153.824"/><line style="stroke:#006400;stroke-width:1.5" x1="1596" x2="1596" y1="139.824" y2="139.824"/><line style="stroke:#333;stroke-width:.5" x1="10" x2="1601" y1="161.824" y2="161.824"/><text x="15" y="176.79" fill="#333" font-family="sans-serif" font-size="14" font-weight="bold" lengthAdjust="spacing" textLength="53">Data0-1</text><line style="stroke:#333;stroke-width:.5" x1="10" x2="69" y1="181.892" y2="181.892"/><line style="stroke:#333;stroke-width:.5" x1="69" x2="79" y1="181.892" y2="161.824"/><line style="stroke:#006400;stroke-width:1.5" x1="96" x2="146" y1="220.236" y2="220.236"/><polygon fill="#E2E2F0" points="158 208.236 534 208.236 546 220.236 534 232.236 158 232.236 146 220.236" style="stroke:#006400;stroke-width:1.5"/><polygon fill="#E2E2F0" points="558 208.236 734 208.236 746 220.236 734 232.236 558 232.236 546 220.236" style="stroke:#006400;stroke-width:1.5"/><polygon fill="#E2E2F0" points="758 208.236 1134 208.236 1146 220.236 1134 232.236 758 232.236 746 220.236" style="stroke:#006400;stroke-width:1.5"/><polygon fill="#E2E2F0" points="1158 208.236 1334 208.236 1346 220.236 1334 232.236 1158 232.236 1146 220.236" style="stroke:#006400;stroke-width:1.5"/><polygon fill="#E2E2F0" points="1358 208.236 1534 208.236 1546 220.236 1534 232.236 1358 232.236 1346 220.236" style="stroke:#006400;stroke-width:1.5"/><line style="stroke:#006400;stroke-width:1.5" x1="1546" x2="1596" y1="220.236" y2="220.236"/><text x="287" y="224.892" fill="#333" font-family="sans-serif" font-size="12" font-weight="bold" lengthAdjust="spacing" textLength="118">Command (D0 only)</text><text x="603" y="224.892" fill="#333" font-family="sans-serif" font-size="12" font-weight="bold" lengthAdjust="spacing" textLength="86">Address (D0-1)</text><text x="922" y="224.892" fill="#333" font-family="sans-serif" font-size="12" font-weight="bold" lengthAdjust="spacing" textLength="48">Dummy</text><text x="1213" y="224.892" fill="#333" font-family="sans-serif" font-size="12" font-weight="bold" lengthAdjust="spacing" textLength="66">Data (D0-1)</text><text x="1441.5" y="224.892" fill="#333" font-family="sans-serif" font-size="12" font-weight="bold" lengthAdjust="spacing" textLength="9">...</text><line style="stroke:#8b0000;stroke-width:1.5" x1="147" x2="545" y1="197.564" y2="197.564"/><polygon fill="#8B0000" points="155 201.564 155 193.564 147 197.564" style="stroke:#8b0000;stroke-width:1"/><polygon fill="#8B0000" points="537 201.564 537 193.564 545 197.564" style="stroke:#8b0000;stroke-width:1"/><text x="333.5" y="189.048" fill="#8B0000" font-family="sans-serif" font-size="12" lengthAdjust="spacing" textLength="25">8 clk</text><line style="stroke:#8b0000;stroke-width:1.5" x1="547" x2="745" y1="197.564" y2="197.564"/><polygon fill="#8B0000" points="555 201.564 555 193.564 547 197.564" style="stroke:#8b0000;stroke-width:1"/><polygon fill="#8B0000" points="737 201.564 737 193.564 745 197.564" style="stroke:#8b0000;stroke-width:1"/><text x="633.5" y="189.048" fill="#8B0000" font-family="sans-serif" font-size="12" lengthAdjust="spacing" textLength="25">4 clk</text><line style="stroke:#8b0000;stroke-width:1.5" x1="747" x2="1145" y1="197.564" y2="197.564"/><polygon fill="#8B0000" points="755 201.564 755 193.564 747 197.564" style="stroke:#8b0000;stroke-width:1"/><polygon fill="#8B0000" points="1137 201.564 1137 193.564 1145 197.564" style="stroke:#8b0000;stroke-width:1"/><text x="933.5" y="189.048" fill="#8B0000" font-family="sans-serif" font-size="12" lengthAdjust="spacing" textLength="25">8 clk</text><line style="stroke:#8b0000;stroke-width:1.5" x1="1147" x2="1345" y1="197.564" y2="197.564"/><polygon fill="#8B0000" points="1155 201.564 1155 193.564 1147 197.564" style="stroke:#8b0000;stroke-width:1"/><polygon fill="#8B0000" points="1337 201.564 1337 193.564 1345 197.564" style="stroke:#8b0000;stroke-width:1"/><text x="1233.5" y="189.048" fill="#8B0000" font-family="sans-serif" font-size="12" lengthAdjust="spacing" textLength="25">4 clk</text><line style="stroke:#8b0000;stroke-width:1.5" x1="1347" x2="1545" y1="197.564" y2="197.564"/><polygon fill="#8B0000" points="1355 201.564 1355 193.564 1347 197.564" style="stroke:#8b0000;stroke-width:1"/><polygon fill="#8B0000" points="1537 201.564 1537 193.564 1545 197.564" style="stroke:#8b0000;stroke-width:1"/><text x="1433.5" y="189.048" fill="#8B0000" font-family="sans-serif" font-size="12" lengthAdjust="spacing" textLength="25">4 clk</text><line style="stroke:#333;stroke-width:2;stroke-dasharray:4,4" x1="1146" x2="1146" y1="50.068" y2="242.236"/><line style="stroke:#333;stroke-width:2;stroke-dasharray:4,4" x1="1546" x2="1546" y1="50.068" y2="242.236"/><text x="1149" y="64.896" fill="#000" font-family="sans-serif" font-size="12" lengthAdjust="spacing" textLength="162">Optional for SPI Transactions</text><text x="1149" y="81.24" fill="#000" font-family="sans-serif" font-size="12" lengthAdjust="spacing" textLength="69">without data</text></g></svg>